<?xml version="1.0" standalone="no"?>
<!DOCTYPE svg PUBLIC "-//W3C//DTD SVG 20010904//EN"
 "http://www.w3.org/TR/2001/REC-SVG-20010904/DTD/svg10.dtd">
<svg version="1.0" xmlns="http://www.w3.org/2000/svg"
 width="300.000000pt" height="300.000000pt" viewBox="0 0 300.000000 300.000000"
 preserveAspectRatio="xMidYMid meet">
<metadata>
Created by potrace 1.10, written by Peter Selinger 2001-2011
</metadata>
<g transform="translate(0.000000,300.000000) scale(0.100000,-0.100000)"
fill="#000000" stroke="none">
<path d="M1600 2765 c-25 -8 -84 -18 -132 -23 -109 -12 -201 -52 -246 -108
-44 -54 -140 -190 -157 -223 -7 -15 -31 -39 -53 -54 -36 -26 -72 -76 -86 -124
-4 -11 -27 -41 -51 -66 -42 -42 -45 -48 -47 -103 -3 -91 2 -128 19 -146 13
-15 14 -20 3 -33 -9 -11 -16 -13 -24 -5 -42 42 -158 -47 -169 -130 -3 -24 -3
-49 1 -55 4 -5 5 -17 4 -26 -2 -9 4 -22 13 -29 9 -7 15 -29 15 -52 0 -22 5
-48 11 -59 10 -20 11 -20 25 -2 8 10 6 -1 -6 -24 -22 -47 -27 -74 -9 -56 24
24 56 109 48 128 -8 20 -8 20 -9 0 -1 -19 -1 -19 -11 -2 -6 10 -7 31 -4 47 4
19 3 30 -4 30 -6 0 -11 -17 -12 -37 l-1 -38 -9 35 c-5 19 -7 44 -4 55 2 11 -1
27 -6 35 -9 12 -10 10 -6 -8 3 -12 1 -20 -3 -17 -5 3 -11 -1 -14 -7 -3 -7 -3
-1 0 15 4 16 2 27 -5 27 -7 0 -8 8 -1 24 5 13 6 27 3 30 -3 3 9 26 28 50 33
43 65 66 94 66 20 0 38 -37 31 -65 -4 -15 -1 -25 8 -28 8 -3 17 -19 21 -36 4
-17 11 -33 16 -36 5 -4 9 -22 9 -40 0 -30 -6 -39 -40 -60 -22 -14 -44 -25 -49
-25 -13 0 -23 -18 -17 -29 3 -4 28 3 56 16 37 17 55 34 70 63 l20 38 -25 56
c-37 83 -34 108 21 161 25 25 39 45 33 45 -7 0 -30 -17 -51 -37 -21 -20 -38
-33 -38 -27 0 6 15 24 33 41 44 42 98 70 81 41 -4 -7 -3 -8 5 -4 6 4 9 11 6
16 -3 4 12 15 33 24 33 15 33 16 7 11 -16 -4 -52 -17 -80 -30 -52 -26 -65 -25
-50 3 12 21 7 105 -6 97 -5 -4 -10 -27 -11 -53 -1 -38 -3 -34 -7 23 l-6 70 -8
-67 c-7 -53 -5 -74 6 -98 17 -32 4 -43 -13 -11 -12 24 -13 102 -1 154 10 42
48 90 66 83 6 -2 17 4 23 15 11 17 61 46 120 70 21 8 23 7 16 -13 -15 -49 -14
-51 5 -12 15 32 26 42 52 48 39 8 42 5 31 -25 -17 -43 -34 -168 -25 -182 5 -9
16 -11 33 -6 24 7 24 7 3 8 -21 1 -23 6 -23 49 0 58 24 152 42 164 21 14 233
-6 244 -23 2 -4 10 -6 17 -4 7 2 41 -3 77 -13 l65 -17 3 -43 c2 -23 -4 -70
-13 -104 -16 -64 -13 -91 5 -43 6 16 14 63 17 106 l6 77 26 -8 c25 -7 26 -9
25 -78 -1 -39 -6 -85 -12 -101 -6 -17 -7 -31 -2 -31 12 0 30 91 30 149 l0 49
73 -20 c39 -11 79 -22 87 -25 8 -3 33 -6 55 -7 22 -2 54 -6 70 -10 73 -16 80
-17 64 -7 -14 9 -62 21 -214 51 -33 7 -94 23 -135 37 -148 48 -319 88 -357 84
-13 -1 -23 3 -23 10 0 19 -138 4 -221 -24 l-69 -24 22 25 c13 13 50 37 83 54
86 42 91 54 11 23 -87 -32 -130 -64 -157 -117 -22 -43 -36 -47 -20 -6 13 36
59 86 95 105 17 9 83 36 146 59 123 46 132 57 18 23 -39 -11 -72 -18 -75 -15
-3 2 17 16 44 30 49 25 88 57 133 110 l25 29 -24 -14 c-13 -8 -32 -19 -43 -25
-11 -6 -19 -14 -19 -18 1 -3 1 -10 1 -14 0 -5 -27 -21 -60 -37 -40 -19 -68
-40 -82 -63 -22 -35 -37 -38 -19 -3 6 11 33 49 59 85 26 35 59 82 75 104 40
60 142 108 244 117 43 4 96 12 118 18 22 6 95 11 162 12 87 0 113 -3 90 -9
-17 -4 -67 -6 -110 -2 -44 3 -89 1 -104 -5 -15 -5 -75 -16 -135 -24 -151 -20
-212 -55 -284 -160 -39 -58 -38 -60 11 -16 28 23 66 51 85 62 19 10 29 18 21
19 -11 0 -10 5 4 20 11 12 28 20 39 19 44 -3 66 2 66 14 0 9 28 17 84 25 46 7
97 19 114 28 23 11 36 12 50 5 17 -9 70 -8 224 2 26 2 44 -1 42 -5 -3 -5 6 -6
21 -2 41 10 106 -21 160 -78 l50 -52 -58 52 c-53 47 -129 83 -145 68 -3 -3 1
-6 9 -6 38 0 179 -105 179 -133 0 -4 15 -24 34 -43 55 -57 69 -96 62 -173 -3
-36 -7 -77 -8 -91 -2 -24 7 -60 38 -158 12 -40 12 -43 -3 -38 -8 4 0 -10 19
-30 43 -43 63 -101 48 -139 -19 -49 -10 -112 31 -236 48 -144 57 -245 27 -292
-21 -31 -24 -47 -5 -28 10 10 14 0 23 -51 5 -35 7 -76 2 -92 -4 -17 -4 -32 0
-35 9 -7 8 -90 -3 -114 -5 -13 -4 -16 9 -11 20 8 20 -12 1 -46 -8 -14 -14 -29
-14 -35 0 -5 4 -2 10 8 5 9 14 17 19 17 12 0 1 -28 -24 -62 -11 -15 -17 -31
-13 -34 3 -4 12 5 18 20 7 14 16 26 21 26 5 0 4 -9 -2 -19 -15 -28 -12 -35 7
-20 15 13 15 12 -1 -12 -9 -15 -16 -39 -16 -55 1 -16 -2 -41 -6 -57 -5 -22 -3
-26 9 -21 12 4 16 -2 19 -28 2 -18 7 21 12 87 11 153 2 330 -23 470 -20 108
-21 142 -2 92 32 -83 45 -207 46 -412 0 -116 -4 -231 -8 -258 l-8 -47 -49 53
c-27 30 -74 71 -105 92 l-55 38 22 24 c12 13 17 23 11 23 -6 0 -17 -10 -25
-22 -12 -18 -18 -20 -29 -12 -32 26 -130 73 -127 62 3 -7 37 -31 76 -53 245
-136 353 -288 298 -419 -7 -18 -25 -42 -40 -53 -25 -20 -27 -21 -78 -3 -29 11
-65 21 -79 24 -20 4 -30 17 -44 53 -27 72 -101 218 -136 269 -17 25 -29 48
-26 50 7 8 68 -47 65 -60 -1 -6 14 -36 34 -66 19 -30 45 -74 57 -98 12 -23 24
-42 27 -42 3 0 -11 30 -31 66 -20 37 -34 68 -32 70 6 6 77 -90 117 -158 19
-31 36 -55 38 -53 7 7 -82 151 -133 215 -86 106 -109 129 -136 134 -26 4 -26
3 28 -97 62 -116 135 -268 131 -272 -2 -1 -18 2 -35 7 -21 5 -33 15 -33 26 0
13 -2 14 -8 4 -5 -7 -16 -10 -25 -6 -9 3 -14 11 -10 17 3 6 1 7 -5 3 -14 -8
-27 17 -36 69 -10 58 -65 233 -75 239 -5 3 4 -36 20 -87 40 -127 59 -207 48
-207 -5 0 -9 2 -9 5 0 2 -13 54 -30 114 -39 145 -58 191 -75 184 -12 -4 -10
-10 5 -31 15 -21 70 -207 70 -236 0 -3 -13 2 -29 12 -16 9 -28 19 -25 23 3 6
-130 18 -203 18 -28 1 -174 58 -193 77 -27 27 0 46 91 64 70 14 185 58 156 60
-4 0 -20 -6 -35 -14 -23 -11 -112 -35 -199 -52 -27 -5 -39 -39 -22 -60 17 -21
92 -58 152 -75 26 -7 47 -17 47 -21 0 -19 -53 -33 -135 -35 -141 -4 -165 -6
-154 -19 6 -8 -2 -17 -27 -29 -34 -16 -38 -16 -75 1 -52 23 -125 102 -178 192
-24 40 -42 74 -40 76 2 2 31 0 64 -6 39 -6 79 -6 115 1 30 5 116 13 190 16 74
4 161 13 193 21 32 8 69 14 82 14 13 0 27 4 30 10 3 6 -2 8 -12 5 -19 -6 21
15 95 48 23 10 64 39 90 63 26 24 50 44 54 44 15 0 68 53 61 62 -3 6 -2 8 4 5
5 -3 24 24 43 61 18 37 39 74 46 82 7 8 17 29 23 45 11 29 10 29 -5 10 -16
-19 -16 -18 -9 20 10 50 12 185 4 185 -13 0 -18 45 -6 59 10 12 9 14 -5 8 -12
-4 -18 -1 -18 9 0 8 -6 36 -14 62 -8 26 -32 103 -52 172 -21 69 -42 130 -47
135 -11 11 -8 0 27 -127 13 -49 20 -88 15 -88 -5 0 -9 4 -9 9 0 10 -75 91 -84
91 -3 0 -6 -7 -6 -15 0 -8 6 -15 13 -15 15 0 111 -104 99 -108 -5 -1 -5 -20 0
-45 35 -162 35 -170 14 -222 -18 -41 -99 -131 -138 -151 -27 -14 -27 -14 -18
10 5 14 7 70 3 124 -4 67 -2 105 6 120 9 16 9 27 1 40 -9 14 -10 13 -5 -8 5
-21 4 -22 -5 -8 -6 10 -13 30 -14 45 -8 58 -54 138 -111 193 -36 35 -52 46
-44 30 7 -14 12 -29 11 -33 -1 -5 2 -6 7 -3 16 10 73 -72 93 -137 23 -70 28
-221 9 -272 -9 -27 -10 -25 -4 15 19 135 -10 286 -68 350 -18 20 -24 25 -15
10 62 -96 77 -162 74 -312 -1 -64 -6 -114 -10 -112 -4 3 -5 -3 -1 -12 5 -13 3
-15 -7 -9 -8 5 -11 4 -7 -2 4 -6 0 -13 -8 -17 -8 -3 -12 -12 -9 -21 4 -10 2
-15 -7 -13 -7 2 -14 -4 -14 -12 -1 -8 -7 -14 -14 -12 -7 1 -10 -2 -6 -8 17
-27 -135 -78 -195 -65 -37 8 -51 33 -53 95 -1 26 -5 46 -9 44 -4 -2 -9 4 -12
14 -4 10 -20 32 -37 48 l-30 29 -242 5 c-133 3 -249 9 -257 14 -10 6 -9 2 3
-10 16 -17 36 -19 190 -22 305 -4 302 -4 331 -31 30 -29 50 -92 42 -133 -3
-18 -2 -27 4 -23 6 4 10 -10 10 -34 0 -29 -5 -41 -17 -44 -14 -4 -13 -5 4 -6
20 -1 49 30 38 41 -3 2 22 2 54 0 67 -5 148 17 176 48 20 22 41 27 29 8 -5 -9
-2 -8 10 1 13 11 14 16 4 22 -12 8 -4 13 15 10 5 -1 6 3 3 8 -4 5 3 25 14 43
11 19 26 61 34 93 l14 60 1 -90 c1 -49 -4 -107 -10 -129 -15 -56 -86 -119
-193 -172 -50 -25 -84 -44 -76 -41 60 17 121 40 125 48 4 5 11 9 17 9 7 0 -1
-13 -17 -30 -31 -32 -151 -83 -224 -95 -40 -7 -78 -21 -169 -62 -49 -22 -214
-4 -302 33 -38 16 -91 29 -127 32 -57 4 -64 2 -87 -22 -21 -23 -30 -26 -59
-21 -19 4 -50 16 -68 27 -31 19 -32 22 -14 29 11 4 33 8 49 8 16 1 34 8 40 16
17 23 146 44 198 34 57 -12 279 -21 253 -10 -19 8 -65 12 -275 27 -87 6 -143
-6 -287 -60 -51 -19 -88 -9 -105 29 -6 14 -9 26 -7 28 2 1 42 21 89 45 47 24
104 54 127 68 62 37 143 41 283 14 139 -26 167 -37 213 -84 42 -42 78 -47 101
-14 21 29 20 67 -1 98 -15 22 -15 24 -1 12 22 -18 60 -82 49 -82 -5 0 -7 -8
-4 -18 6 -26 -39 -63 -84 -69 -35 -5 -42 -2 -66 27 -15 17 -27 27 -27 21 0 -5
11 -22 23 -37 27 -31 65 -35 116 -14 51 21 79 93 46 120 -18 15 -20 34 -2 24
25 -14 -79 87 -116 113 -20 14 -35 28 -32 31 6 6 50 -22 90 -57 l30 -26 -30
33 c-37 42 -78 64 -101 55 -10 -4 -15 -2 -11 4 3 5 1 10 -6 10 -7 1 -61 13
-122 28 -60 15 -125 29 -144 32 -19 2 -41 12 -48 21 -8 9 -11 11 -7 3 5 -11 2
-13 -17 -8 -13 4 -30 7 -36 7 -7 0 -13 6 -13 13 0 7 -9 18 -20 25 -25 15 -27
4 -3 -14 15 -11 6 -12 -62 -7 -45 3 -96 1 -117 -5 -31 -8 -38 -8 -38 4 0 8 -4
14 -10 14 -5 0 -10 -5 -10 -12 0 -6 -2 -9 -5 -6 -3 3 -1 18 5 34 11 27 12 28
25 11 13 -17 15 -16 33 24 14 31 17 46 9 51 -8 5 -8 16 0 42 6 20 7 38 3 41
-5 3 -14 -13 -20 -35 -7 -27 -19 -45 -36 -52 -17 -8 -23 -17 -19 -29 7 -21
-22 -118 -41 -139 -21 -22 -17 1 12 65 17 41 22 61 15 68 -15 15 -13 47 4 77
10 19 11 28 2 39 -7 7 -15 37 -19 65 -6 47 -6 46 -2 -9 3 -33 4 -67 4 -75 -1
-8 -2 -40 -4 -71 -1 -31 -12 -81 -23 -110 -41 -109 -51 -146 -46 -172 4 -22 1
-27 -23 -33 -144 -33 -184 -58 -184 -119 0 -42 36 -85 72 -85 26 0 144 25 171
35 13 5 17 2 17 -14 0 -33 35 -61 76 -61 24 0 46 -8 65 -24 26 -23 67 -35 174
-52 33 -5 36 -8 20 -14 -11 -5 -55 -22 -98 -38 -42 -17 -98 -44 -122 -61 l-46
-31 -53 30 c-29 17 -60 30 -68 30 -9 0 -27 -19 -41 -42 -51 -87 -125 -172
-168 -193 -49 -23 -69 -49 -52 -66 6 -6 64 -15 130 -20 65 -4 147 -11 183 -15
l65 -7 -42 -14 c-24 -8 -43 -19 -43 -23 0 -5 62 -11 138 -13 234 -7 535 -27
572 -37 107 -29 374 -35 640 -14 318 24 330 26 325 34 -5 8 66 20 116 20 31 0
48 18 29 30 -9 6 -8 11 7 18 24 13 133 32 185 32 47 0 58 17 27 41 l-24 19 42
0 c90 0 97 29 18 80 -30 19 -55 42 -55 50 0 8 9 35 20 59 11 24 20 52 20 62 0
21 -66 99 -83 99 -6 0 5 -17 25 -37 40 -43 52 -71 38 -93 -9 -13 -10 -13 -11
0 -1 8 -1 19 0 23 1 5 -3 6 -9 2 -6 -4 -26 7 -46 24 -19 17 -44 31 -55 31 -11
0 -18 4 -14 9 3 6 -3 14 -12 20 -10 5 -15 12 -11 16 7 8 61 -18 105 -51 47
-36 52 -29 10 13 -20 21 -37 43 -37 48 0 6 -19 19 -41 31 l-40 20 -2 112 -2
111 37 -36 36 -35 16 24 c23 35 39 134 32 198 -4 30 -8 73 -10 96 -1 22 -6 47
-11 54 -4 7 -3 15 4 19 12 8 -10 59 -47 106 -26 33 -28 51 -6 59 25 10 8 23
-79 64 -45 21 -87 45 -94 53 -6 8 -18 42 -27 76 -13 48 -14 72 -6 108 14 62 3
176 -26 261 -24 72 -30 134 -25 250 2 43 -2 71 -14 95 -22 41 -165 194 -216
230 -49 34 -180 60 -284 57 -44 -2 -96 0 -115 4 -21 4 -53 1 -80 -7z m673
-275 c20 -31 22 -49 22 -165 1 -117 3 -138 29 -207 15 -43 26 -82 24 -88 -2
-6 -16 29 -32 77 -16 49 -35 103 -42 121 -8 18 -14 40 -13 50 0 14 2 13 8 -3
12 -30 20 132 9 172 -5 19 -30 59 -55 91 -43 53 -43 55 -9 22 21 -19 47 -51
59 -70z m223 -891 c34 -15 44 -25 44 -43 0 -13 9 -31 20 -41 20 -18 41 -71 46
-115 1 -14 6 -50 10 -80 15 -125 3 -257 -25 -275 -5 -2 -17 5 -27 18 -16 18
-16 19 -1 8 26 -20 21 -7 -19 54 -20 29 -34 60 -32 67 3 7 17 -9 32 -35 15
-26 32 -47 38 -47 5 0 6 -5 3 -10 -3 -5 -1 -10 4 -10 23 0 2 40 -52 98 -18 18
-25 32 -17 32 10 0 10 4 -2 18 -8 9 -19 24 -23 32 -15 27 43 -31 71 -71 14
-21 30 -36 35 -33 5 3 -17 35 -49 72 -68 77 -90 117 -44 82 15 -12 27 -27 27
-32 0 -6 9 -12 20 -14 11 -2 28 -13 38 -25 10 -12 20 -20 23 -17 3 3 -31 39
-76 80 -44 41 -80 81 -80 89 0 7 35 -20 77 -61 43 -41 62 -58 43 -37 -18 20
-29 37 -24 37 6 0 11 7 11 15 0 8 -4 12 -8 9 -9 -5 -100 61 -112 83 -17 28 0
22 69 -23 92 -61 91 -60 76 -41 -8 9 -45 37 -83 63 -65 45 -69 50 -65 81 2 18
-1 36 -5 39 -5 3 -9 10 -9 15 0 5 20 -2 45 -17 25 -14 48 -24 51 -21 3 3 -4 8
-15 12 -12 3 -19 11 -16 16 3 5 -2 6 -11 2 -11 -4 -15 -2 -11 4 4 6 -7 16 -23
23 -36 15 -53 35 -20 25 12 -4 42 -16 66 -26z m-1736 -182 c0 -19 -10 -27 -26
-20 -11 4 -12 9 -3 19 15 18 29 18 29 1z m1479 -33 c1 11 4 17 7 13 6 -5 -2
-33 -32 -122 -20 -56 -83 -126 -162 -178 -89 -58 -112 -67 -80 -29 12 15 30
36 38 46 20 25 67 73 120 121 40 37 89 120 91 155 0 10 3 8 9 -5 8 -19 9 -19
9 -1z m-9 -144 c-50 -135 -59 -147 -160 -213 -50 -33 -175 -87 -201 -87 -5 0
1 15 13 33 27 37 39 48 50 41 4 -3 26 5 49 16 25 13 38 16 33 8 -9 -14 44 23
117 83 33 28 55 59 83 118 21 45 40 81 42 81 2 0 -10 -36 -26 -80z m-1210 45
c148 -36 224 -62 311 -106 126 -65 182 -143 139 -193 -20 -25 -36 -19 -85 33
-81 85 -180 127 -381 161 -141 24 -199 19 -264 -24 -46 -30 -106 -40 -114 -19
-21 53 15 107 96 147 69 34 157 35 298 1z m1040 -98 c0 -2 -9 -12 -20 -22 -17
-16 -20 -16 -20 -2 0 8 8 18 18 20 9 3 18 5 20 6 1 0 2 -1 2 -2z m-1112 -25
c23 -4 42 -11 41 -17 -2 -14 -76 -34 -107 -29 -20 3 -23 2 -12 -5 13 -9 13
-12 1 -23 -11 -11 -14 -11 -18 0 -4 10 -9 7 -17 -9 -12 -25 -83 -78 -103 -79
-9 0 -13 13 -12 38 l1 37 8 -30 9 -30 -2 30 c-1 17 -7 29 -12 28 -6 -1 -15 10
-22 23 l-11 25 64 -2 c35 -1 67 1 71 5 3 3 -3 6 -15 6 -24 0 -30 25 -9 33 17
8 95 7 145 -1z m207 -32 c3 -5 3 -15 -1 -21 -6 -11 -23 6 -24 24 0 10 18 9 25
-3z m-461 -42 c19 -27 21 -82 4 -96 -7 -5 -29 -12 -48 -14 -19 -3 -43 -8 -52
-13 -15 -6 -18 -2 -18 29 0 21 -7 50 -15 67 -17 31 -16 32 30 42 52 12 84 7
99 -15z m-126 -92 c-2 -29 -8 -42 -20 -44 -15 -3 -18 4 -18 35 0 21 -6 50 -14
65 -20 37 2 44 32 11 18 -20 22 -35 20 -67z m-74 55 c20 -22 19 -112 0 -118
-7 -2 -12 2 -11 9 1 36 -4 68 -11 68 -5 0 -7 -13 -4 -29 2 -16 -1 -32 -7 -36
-19 -11 -41 15 -41 49 0 43 32 75 43 44 2 -7 2 -3 0 10 -4 27 8 28 31 3z
m1616 -31 c-6 -11 -26 -30 -45 -43 -19 -13 -44 -36 -56 -51 -52 -66 -202 -111
-349 -104 -43 1 -76 0 -72 -4 10 -10 153 -12 207 -4 l40 6 -40 -16 c-22 -9
-95 -20 -165 -25 -69 -6 -152 -13 -185 -16 -115 -13 -237 -8 -274 11 -18 10
-30 12 -26 6 16 -26 -79 0 -179 48 -5 3 -6 0 -2 -7 4 -6 2 -11 -3 -11 -20 0
-11 20 12 29 27 11 109 13 103 3 -3 -4 3 -8 12 -8 27 -1 45 -8 61 -22 7 -7 20
-11 28 -8 8 3 12 2 9 -3 -3 -5 1 -12 10 -15 24 -9 31 -7 14 5 -11 8 -9 9 10 3
14 -4 28 -11 31 -16 3 -5 45 -7 97 -4 71 4 105 11 159 35 79 34 158 49 264 49
63 0 90 6 153 32 42 18 79 37 83 43 4 7 0 8 -13 2 -68 -30 -162 -56 -216 -60
l-63 -6 64 25 c35 13 69 22 76 20 19 -8 152 50 210 90 60 42 58 41 45 16z
m480 -206 c0 -2 -13 2 -30 11 -16 9 -30 18 -30 21 0 2 14 -2 30 -11 17 -9 30
-18 30 -21z m-1523 -49 c19 -8 51 -15 69 -15 28 0 36 -5 44 -25 5 -14 18 -42
28 -64 l19 -39 -33 -4 c-18 -2 -32 -1 -32 2 2 28 -4 32 -19 10 -19 -27 -43
-49 -56 -50 -5 0 0 12 11 28 10 15 25 38 31 52 10 21 9 20 -11 -5 -43 -56 -81
-96 -86 -91 -3 3 1 14 9 23 8 10 -6 1 -30 -20 -32 -29 -46 -36 -54 -28 -9 9
-3 19 23 39 53 41 106 95 114 117 7 21 -5 10 -116 -94 l-47 -44 -48 31 c-26
17 -61 36 -78 42 l-30 11 70 39 c82 46 123 54 50 9 -62 -38 -24 -28 74 19 58
29 70 37 55 43 -28 11 -41 10 -24 -1 11 -8 9 -9 -10 -5 -26 6 -142 -44 -200
-85 -30 -21 -45 -26 -35 -11 10 18 114 72 192 101 43 16 79 29 81 30 1 0 19
-7 39 -15z m1521 -40 c79 -46 83 -52 71 -102 -10 -38 -12 -40 -34 -29 -12 6
-37 26 -54 44 -45 44 -63 41 -20 -4 32 -34 33 -36 9 -29 -35 10 -48 29 -48 76
-1 29 2 38 11 32 7 -5 33 -26 59 -46 32 -25 49 -34 54 -26 4 7 3 9 -3 6 -6 -4
-18 4 -27 18 -9 13 -34 35 -56 47 -22 13 -40 29 -40 36 0 19 14 15 78 -23z
m-379 -60 c-3 -2 -16 10 -29 28 l-23 32 29 -27 c15 -15 26 -30 23 -33z m-1537
-1 c28 -14 72 -32 98 -40 26 -8 75 -33 111 -56 l64 -43 -50 -3 c-27 -2 -56 -9
-64 -15 -12 -10 -13 -8 -9 11 4 12 2 22 -3 22 -5 0 -9 -12 -9 -26 0 -23 3 -25
23 -19 12 3 54 10 92 14 42 5 97 21 137 39 111 51 156 48 197 -12 28 -40 85
-86 107 -86 5 0 -6 9 -25 21 -18 11 -31 22 -28 25 8 8 116 -49 111 -58 -13
-20 36 -5 91 28 73 44 118 51 208 30 81 -19 103 -20 62 -2 l-30 13 52 26 c29
15 62 27 74 27 46 0 132 -33 192 -75 68 -46 123 -68 226 -90 37 -8 84 -22 106
-31 l40 -18 -40 -8 c-22 -4 -61 -10 -88 -13 -26 -4 -45 -10 -43 -14 3 -4 -88
-14 -202 -22 -366 -25 -712 -17 -712 18 0 8 -4 12 -10 8 -5 -3 -95 -2 -200 1
-105 4 -186 10 -181 14 6 3 -6 6 -27 7 -20 0 -72 1 -114 2 -42 1 -94 0 -115
-4 l-38 -5 45 21 c69 32 147 49 222 49 44 0 85 7 118 20 28 11 63 20 78 21
l27 1 -28 10 c-22 8 -43 6 -86 -6 -31 -9 -82 -16 -112 -17 -42 -1 -48 -3 -29
-9 20 -6 14 -8 -27 -9 -29 -1 -73 -6 -97 -13 -35 -9 -73 -9 -178 2 -73 7 -150
12 -172 11 -44 -2 -76 6 -76 20 0 5 22 20 49 34 49 24 103 85 165 183 14 23
31 42 36 42 6 0 34 -12 62 -26z m2023 -129 c30 -20 55 -41 55 -45 0 -14 -113
-22 -143 -11 -16 6 -42 11 -58 11 -27 0 -29 3 -29 39 0 46 9 52 73 47 35 -2
62 -13 102 -41z m-1385 -13 c-15 -5 -51 28 -44 40 3 5 17 -1 31 -14 14 -13 19
-24 13 -26z m1327 -75 c41 -20 43 -22 21 -28 -12 -4 -46 -7 -75 -8 -28 -1 -64
-6 -79 -12 -27 -9 -27 -9 -12 8 9 10 20 31 24 46 6 27 9 28 41 22 20 -3 55
-16 80 -28z"/>
<path d="M2450 1546 c0 -2 25 -16 56 -31 30 -15 53 -29 51 -32 -3 -2 -24 5
-47 17 -23 12 -46 20 -51 18 -5 -2 20 -18 58 -37 45 -22 62 -27 52 -15 -8 9
-12 20 -9 23 3 3 -18 18 -45 33 -48 26 -65 33 -65 24z"/>
<path d="M920 1231 c6 -12 20 -21 32 -21 12 0 19 1 17 3 -2 2 -17 11 -32 21
-28 17 -28 17 -17 -3z"/>
<path d="M811 1218 c0 -13 3 -17 6 -10 4 10 8 10 21 0 13 -12 14 -10 3 10 -6
12 -16 22 -21 22 -6 0 -10 -10 -9 -22z"/>
<path d="M720 1205 c0 -8 7 -15 16 -15 14 0 14 3 4 15 -7 8 -14 15 -16 15 -2
0 -4 -7 -4 -15z"/>
<path d="M670 1198 c0 -9 -3 -25 -6 -35 -4 -11 -3 -14 3 -7 4 6 13 13 20 15 8
3 8 9 -3 23 -11 16 -14 17 -14 4z"/>
<path d="M1224 1149 c64 -26 128 -71 165 -116 17 -20 33 -34 36 -31 3 3 -21
30 -54 61 -56 51 -153 108 -183 106 -7 0 9 -9 36 -20z"/>
<path d="M999 692 c-73 -44 -119 -76 -119 -85 0 -9 70 30 138 75 68 46 54 54
-19 10z"/>
<path d="M579 493 c-32 -34 -37 -43 -19 -33 30 15 80 60 80 72 0 17 -18 6 -61
-39z"/>
<path d="M681 466 c-31 -11 -55 -36 -34 -36 11 0 73 38 73 45 0 3 -1 5 -2 4
-2 0 -18 -6 -37 -13z"/>
<path d="M480 435 c-16 -19 -3 -19 30 0 24 13 24 14 4 15 -12 0 -27 -7 -34
-15z"/>
<path d="M1271 435 c11 -11 24 -13 50 -8 l34 7 -30 7 c-16 4 -39 7 -50 8 -17
1 -18 -1 -4 -14z"/>
<path d="M1310 405 c0 -7 73 -45 78 -40 3 3 1 9 -4 14 -10 9 -74 32 -74 26z"/>
<path d="M1960 390 c0 -12 8 -12 35 0 18 8 17 9 -7 9 -16 1 -28 -3 -28 -9z"/>
<path d="M2035 390 c-4 -6 5 -10 19 -10 14 0 26 5 26 10 0 6 -9 10 -19 10 -11
0 -23 -4 -26 -10z"/>
<path d="M2100 384 c0 -5 35 -19 77 -31 78 -22 111 -23 57 -3 -16 6 -31 15
-34 20 -7 11 -100 24 -100 14z"/>
<path d="M1208 373 c12 -2 30 -2 40 0 9 3 -1 5 -23 4 -22 0 -30 -2 -17 -4z"/>
<path d="M1776 359 c-27 -4 -53 -12 -59 -18 -7 -7 -3 -8 12 -4 11 3 21 1 21
-5 0 -10 26 -7 60 5 8 3 24 5 35 4 12 -1 32 3 45 9 25 10 25 11 1 6 -13 -3
-33 -1 -45 3 -11 4 -43 4 -70 0z"/>
<path d="M1624 338 c-10 -16 3 -19 37 -10 l34 9 -33 5 c-18 2 -35 1 -38 -4z"/>
<path d="M1103 333 c9 -2 25 -2 35 0 9 3 1 5 -18 5 -19 0 -27 -2 -17 -5z"/>
<path d="M1983 312 c-7 -4 31 -6 85 -4 134 4 147 9 27 11 -55 0 -106 -3 -112
-7z"/>
<path d="M1950 2661 c24 -20 40 -26 40 -16 0 2 -15 12 -32 20 l-33 16 25 -20z"/>
<path d="M1477 2628 c-32 -11 -56 -22 -53 -25 4 -5 126 37 126 43 0 6 -12 3
-73 -18z"/>
<path d="M1740 2615 c0 -2 19 -15 43 -29 51 -31 117 -97 160 -161 18 -26 43
-55 57 -64 20 -13 19 -10 -6 15 -17 16 -46 55 -63 86 -20 35 -51 71 -84 95
-48 37 -107 68 -107 58z"/>
<path d="M2076 2571 c14 -30 30 -75 34 -100 l8 -46 1 40 c1 41 -23 104 -53
140 -9 11 -5 -4 10 -34z"/>
<path d="M1363 2590 c-45 -27 -41 -32 7 -12 22 9 40 20 40 25 0 12 -13 8 -47
-13z"/>
<path d="M1941 2587 c8 -7 32 -37 52 -67 20 -30 37 -49 37 -42 0 27 -74 122
-94 122 -6 0 -4 -6 5 -13z"/>
<path d="M451 2503 c-54 -65 -57 -92 -22 -165 17 -34 31 -71 31 -80 0 -10 5
-18 10 -18 18 0 11 46 -15 94 -14 26 -25 61 -25 77 0 32 25 89 39 89 10 0 24
30 17 37 -2 2 -18 -13 -35 -34z"/>
<path d="M1701 2537 c2 -2 29 -17 60 -34 35 -18 56 -25 56 -17 0 7 -25 22 -55
33 -50 20 -71 25 -61 18z"/>
<path d="M1475 2465 c26 -9 105 -12 105 -4 0 5 -26 9 -57 8 -32 0 -53 -2 -48
-4z"/>
<path d="M1745 2418 c25 -19 207 -100 212 -94 2 2 -10 9 -27 16 -16 7 -30 16
-30 20 0 4 -15 11 -34 14 -18 4 -44 15 -56 26 -13 11 -29 20 -36 20 -7 0 -21
3 -31 6 -16 6 -15 4 2 -8z"/>
<path d="M358 2396 c-20 -15 -24 -51 -8 -61 7 -4 9 2 5 18 -5 19 -1 29 16 41
13 9 19 16 14 16 -6 0 -18 -7 -27 -14z"/>
<path d="M1515 2355 c49 -13 92 -22 94 -19 2 2 -2 4 -10 5 -8 0 -6 4 6 10 18
8 18 9 -5 7 -14 0 -32 2 -40 5 -8 3 -42 8 -75 11 -60 5 -59 5 30 -19z"/>
<path d="M1760 2300 c44 -24 155 -60 184 -59 11 0 -8 8 -44 18 -36 10 -87 27
-114 39 -60 27 -73 28 -26 2z"/>
<path d="M344 2295 c-7 -16 3 -35 17 -35 6 0 6 7 -1 19 -7 14 -6 21 3 24 9 4
9 6 -1 6 -7 1 -15 -6 -18 -14z"/>
<path d="M514 2287 c3 -10 6 -25 6 -33 0 -9 5 -12 10 -9 13 8 13 -18 -1 -49
-7 -15 -29 -32 -55 -43 -24 -10 -44 -24 -44 -32 0 -11 3 -11 15 -1 8 7 15 10
15 7 0 -9 73 41 82 56 15 23 8 75 -13 98 -16 19 -19 20 -15 6z"/>
<path d="M1241 2244 c-6 -21 -9 -40 -6 -42 2 -2 8 13 14 34 6 21 9 40 6 42 -2
2 -8 -13 -14 -34z"/>
<path d="M1330 2187 c-17 -71 -19 -100 -11 -114 8 -15 10 -10 11 27 0 25 7 74
15 109 9 35 13 66 11 68 -2 3 -14 -38 -26 -90z"/>
<path d="M387 2262 c-6 -9 29 -53 36 -46 7 8 -14 54 -24 54 -4 0 -10 -3 -12
-8z"/>
<path d="M2121 2255 c0 -5 6 -21 14 -35 8 -14 14 -20 14 -15 0 6 -6 21 -14 35
-8 14 -14 21 -14 15z"/>
<path d="M1421 2208 c-7 -23 -14 -66 -16 -97 -2 -31 -2 -45 1 -31 26 127 33
164 30 167 -1 2 -8 -16 -15 -39z"/>
<path d="M957 2186 c-22 -22 -37 -31 -40 -23 -3 7 -12 -5 -21 -25 -21 -49 -20
-58 5 -29 26 31 33 22 20 -27 -11 -41 -6 -76 10 -66 5 3 9 31 9 63 0 44 5 65
20 82 14 18 20 20 21 9 0 -8 5 -2 10 14 4 17 7 32 5 34 -2 2 -20 -13 -39 -32z"/>
<path d="M1041 2159 c-14 -39 -14 -109 -1 -109 5 0 7 13 4 28 -3 16 -1 46 5
67 13 48 7 58 -8 14z"/>
<path d="M1227 2163 c-4 -3 -7 -20 -7 -38 0 -17 -6 -37 -12 -44 -11 -10 -10
-12 2 -9 9 2 17 20 21 48 7 48 6 54 -4 43z"/>
<path d="M1506 2128 c-9 -57 -39 -114 -56 -110 -8 2 -78 5 -155 7 -112 2 -121
1 -43 -4 53 -3 100 -9 104 -13 4 -5 -2 -8 -14 -8 -12 0 -22 -4 -22 -10 0 -5
-7 -10 -15 -10 -24 0 -76 -30 -70 -40 8 -13 -56 -62 -73 -55 -8 3 -29 -6 -47
-19 -24 -19 -37 -42 -55 -98 -12 -40 -27 -78 -32 -85 -6 -7 -4 -13 4 -16 26
-9 -24 -20 -51 -11 -20 7 -27 17 -29 44 -3 28 2 39 25 57 15 13 22 23 16 23
-26 0 -12 40 32 91 25 29 45 58 45 64 0 7 9 20 20 30 11 10 20 23 20 28 0 31
-146 -154 -154 -194 -2 -13 -10 -45 -17 -71 -12 -43 -11 -49 6 -68 10 -11 36
-23 58 -27 43 -7 77 -47 77 -93 0 -14 5 -32 10 -40 7 -11 10 4 10 48 0 49 -5
70 -20 89 -21 27 -20 52 7 112 9 19 19 46 22 60 6 20 19 30 53 41 50 16 88 45
88 66 0 8 12 17 28 20 15 4 34 13 43 21 9 7 32 13 50 12 19 -1 56 6 82 15 l49
17 64 -66 c63 -65 63 -66 57 -110 -6 -45 -23 -53 -23 -12 0 17 -3 19 -9 8 -7
-11 -10 -9 -16 8 -3 12 -11 19 -16 15 -6 -3 -16 -1 -23 5 -10 8 -17 7 -26 -5
-8 -9 -22 -13 -36 -10 -14 4 -24 1 -28 -9 -3 -9 -17 -20 -31 -25 -14 -5 -25
-14 -25 -20 0 -15 -51 -70 -66 -70 -7 0 -15 -8 -18 -17 -3 -10 -18 -31 -32
-46 -21 -22 -33 -28 -56 -25 -37 6 -48 -18 -48 -98 0 -30 -4 -54 -10 -54 -5 0
-10 -5 -10 -11 0 -34 62 72 63 109 0 6 4 12 9 12 10 0 16 -15 21 -47 2 -12 7
-26 12 -30 4 -5 5 7 1 25 -6 35 1 82 13 82 4 0 15 -18 25 -40 20 -46 54 -76
105 -91 76 -23 175 31 201 110 15 47 9 124 -13 145 -8 9 -17 19 -19 24 -1 4
-16 17 -31 29 -34 26 -18 41 20 18 44 -26 63 -60 77 -133 8 -42 15 -60 18 -47
4 13 6 8 7 -15 0 -20 -9 -56 -21 -80 -69 -136 -287 -120 -362 25 -9 17 -16 24
-16 17 0 -36 57 -105 109 -132 19 -10 21 -14 10 -22 -10 -7 -9 -8 6 -4 11 3
26 2 33 -3 15 -9 127 10 162 29 22 12 24 12 12 -2 -8 -10 -9 -19 -4 -22 14 -8
33 19 27 36 -4 9 1 18 11 22 14 5 15 4 5 -8 -11 -13 -8 -14 21 -6 18 6 34 10
35 10 2 0 3 4 3 10 0 5 -7 7 -15 4 -19 -8 -19 -6 5 44 11 22 20 56 19 74 -1
30 -2 29 -10 -11 -5 -25 -13 -49 -19 -55 -6 -6 -6 2 0 25 13 43 13 133 0 104
-9 -20 -9 -20 -9 1 -1 11 -6 25 -11 30 -6 6 -12 33 -13 61 -1 38 3 56 17 72
17 18 18 24 6 46 -7 13 -27 39 -44 56 -19 20 -24 30 -13 26 32 -12 17 2 -24
23 -36 19 -40 24 -35 48 6 24 5 25 -7 10 -20 -26 -40 -23 -34 5 10 39 20 127
14 127 -2 0 -8 -19 -11 -42z m33 -368 c57 -57 55 -160 -3 -218 -29 -30 -43
-36 -88 -39 -64 -5 -106 17 -131 70 -27 57 -22 72 52 147 59 60 73 70 104 70
26 0 43 -8 66 -30z"/>
<path d="M1468 1750 c19 -4 40 -17 48 -29 8 -12 20 -21 25 -21 6 0 0 13 -13
29 -18 23 -31 30 -58 29 l-35 0 33 -8z"/>
<path d="M1409 1720 c-23 -14 -42 -65 -35 -95 4 -16 20 -32 40 -41 29 -14 37
-15 62 -3 33 16 50 55 40 94 -7 26 -8 26 -25 10 -15 -13 -21 -14 -27 -3 -5 7
-7 21 -6 31 4 19 -22 23 -49 7z m31 -60 c0 -5 7 -10 16 -10 21 0 14 -32 -8
-36 -9 -1 -25 7 -34 18 -16 16 -16 21 -4 28 20 13 30 12 30 0z"/>
<path d="M1262 2120 c0 -19 2 -27 5 -17 2 9 2 25 0 35 -3 9 -5 1 -5 -18z"/>
<path d="M329 2072 c-80 -80 -103 -134 -75 -177 14 -22 24 -26 53 -23 20 2 39
9 41 17 4 11 -2 12 -23 7 -16 -4 -33 -2 -41 5 -18 15 -18 60 1 85 8 10 15 26
15 36 0 9 18 31 40 48 32 25 72 73 58 69 -2 0 -33 -31 -69 -67z"/>
<path d="M1797 2133 c-4 -3 -7 -23 -7 -44 0 -21 -4 -49 -10 -63 -5 -14 -5 -28
-1 -31 12 -7 19 14 27 84 6 59 5 68 -9 54z"/>
<path d="M1858 2070 c-4 -41 -10 -86 -13 -100 -4 -18 -1 -16 10 8 11 23 15 56
13 100 l-3 67 -7 -75z"/>
<path d="M1917 2105 c7 -49 13 -58 13 -19 0 16 -5 36 -10 44 -6 10 -7 2 -3
-25z"/>
<path d="M1080 2095 c0 -14 4 -25 9 -25 4 0 6 11 3 25 -2 14 -6 25 -8 25 -2 0
-4 -11 -4 -25z"/>
<path d="M410 2076 c-63 -37 -85 -71 -70 -110 5 -14 14 -26 19 -26 5 0 23 -13
40 -29 18 -17 31 -23 31 -16 0 7 -16 23 -35 35 -40 24 -54 62 -34 86 19 23 86
64 104 64 16 0 21 15 7 23 -4 3 -32 -9 -62 -27z"/>
<path d="M980 2072 c0 -23 4 -42 9 -42 6 0 7 17 4 38 -8 51 -13 53 -13 4z"/>
<path d="M1745 2070 c-4 -25 -14 -58 -23 -75 -14 -27 -14 -29 1 -17 17 14 42
103 34 124 -2 7 -7 -7 -12 -32z"/>
<path d="M1458 2080 c-7 -24 -3 -38 8 -28 3 4 4 17 2 30 l-3 23 -7 -25z"/>
<path d="M1959 2025 c-4 -27 -9 -59 -13 -70 -3 -11 1 -5 9 14 9 18 15 50 13
70 -3 33 -4 32 -9 -14z"/>
<path d="M1693 2019 c-7 -18 -11 -35 -8 -37 6 -6 27 48 23 60 -2 5 -9 -6 -15
-23z"/>
<path d="M1910 2021 c0 -12 -7 -38 -15 -59 -13 -32 -13 -35 0 -18 17 22 31 84
21 93 -3 4 -6 -4 -6 -16z"/>
<path d="M2032 2010 c0 -19 2 -27 5 -17 2 9 2 25 0 35 -3 9 -5 1 -5 -18z"/>
<path d="M2146 2010 c-5 -19 -15 -48 -23 -63 -8 -16 -12 -34 -10 -40 5 -17 49
102 44 122 -2 9 -7 0 -11 -19z"/>
<path d="M2307 1983 c15 -43 15 -50 0 -91 -15 -38 -15 -43 -2 -38 17 6 20 -5
5 -20 -11 -11 10 -98 40 -170 23 -53 52 -206 44 -229 -4 -8 -1 -15 6 -15 21 0
5 123 -34 253 -35 119 -42 178 -30 251 5 29 2 49 -11 73 -26 48 -36 40 -18
-14z"/>
<path d="M1183 1915 c-36 -32 -17 -32 22 0 17 14 25 25 18 25 -7 0 -25 -11
-40 -25z"/>
<path d="M461 1868 c-9 -16 -32 -34 -62 -47 -53 -22 -60 -38 -29 -66 20 -18
20 -18 14 12 -6 29 -4 30 34 36 47 8 65 26 60 64 l-4 28 -13 -27z"/>
<path d="M941 1872 c-6 -12 -11 -27 -11 -34 0 -7 7 0 15 16 9 16 13 31 11 33
-2 3 -9 -4 -15 -15z"/>
<path d="M311 1834 c-12 -15 -21 -37 -21 -50 0 -29 33 -61 71 -69 87 -19 85
-133 -4 -185 -39 -22 -67 -50 -67 -64 0 -6 7 -1 15 11 9 12 32 25 51 29 26 5
42 16 59 43 55 82 42 140 -38 175 -82 37 -91 61 -44 114 11 12 16 22 9 22 -6
0 -20 -12 -31 -26z"/>
<path d="M1967 1806 c10 -13 22 -22 26 -19 4 3 -2 13 -14 24 -30 26 -34 24
-12 -5z"/>
<path d="M1920 1806 c0 -8 5 -18 10 -21 6 -3 10 3 10 14 0 12 -4 21 -10 21 -5
0 -10 -6 -10 -14z"/>
<path d="M2040 1795 c0 -8 -4 -15 -10 -15 -5 0 -10 -4 -10 -10 0 -5 7 -10 15
-10 9 0 15 9 15 25 0 14 -2 25 -5 25 -3 0 -5 -7 -5 -15z"/>
<path d="M1800 1768 c0 -19 -5 -28 -16 -28 -8 0 -13 -4 -9 -10 8 -14 32 -2 38
20 2 10 1 24 -4 31 -6 10 -9 6 -9 -13z"/>
<path d="M1967 1725 c7 -46 9 -51 16 -33 2 8 -1 27 -8 43 -13 30 -13 30 -8
-10z"/>
<path d="M447 1729 c72 -35 80 -98 22 -171 -33 -42 -38 -59 -9 -33 19 17 20
17 26 0 10 -26 -16 -67 -53 -85 -17 -8 -34 -23 -36 -32 -7 -24 -3 -23 27 7 30
30 46 32 46 5 0 -12 -9 -24 -23 -29 -13 -5 -29 -16 -36 -25 -12 -14 -11 -16 9
-16 28 0 84 55 76 76 -3 9 1 25 9 37 20 29 19 43 -6 68 -19 19 -19 22 -5 38
50 55 36 140 -28 166 -53 22 -67 17 -19 -6z"/>
<path d="M2025 1679 c-7 -22 -8 -22 -21 -4 -8 10 -14 15 -14 9 0 -5 7 -18 15
-28 8 -11 16 -34 16 -50 1 -24 3 -26 6 -8 2 12 9 20 14 17 5 -4 4 5 -3 19 -6
15 -8 29 -5 32 11 11 38 -18 32 -35 -3 -9 -7 -41 -9 -71 -2 -30 -2 -45 1 -32
2 12 8 22 12 22 4 0 13 -10 20 -22 11 -23 11 -23 5 2 -3 14 -10 35 -16 47 -15
30 -2 42 19 20 10 -9 17 -32 17 -52 0 -19 4 -35 9 -35 15 0 1 80 -17 98 -9 10
-29 34 -45 55 -28 36 -30 37 -36 16z"/>
<path d="M2091 1668 c-1 -16 4 -28 9 -28 12 0 12 8 0 35 -8 18 -9 17 -9 -7z"/>
<path d="M1710 1644 c0 -8 5 -12 10 -9 6 3 10 -2 10 -11 0 -10 3 -15 6 -11 8
8 -5 47 -17 47 -5 0 -9 -7 -9 -16z"/>
<path d="M2137 1633 c-12 -12 -7 -22 8 -17 8 4 15 10 15 15 0 11 -14 12 -23 2z"/>
<path d="M1127 1613 c-3 -5 -8 -33 -12 -63 -3 -30 -9 -64 -11 -75 -4 -16 -3
-17 5 -5 6 8 16 15 23 15 9 0 14 21 16 68 2 39 -1 67 -7 67 -5 0 -12 -3 -14
-7z"/>
<path d="M340 1579 c-19 -12 -47 -33 -62 -47 -56 -52 -22 -140 50 -128 42 6
41 -6 -7 -60 -36 -42 -71 -120 -71 -161 0 -38 40 -84 93 -108 28 -12 54 -21
56 -19 2 1 -7 17 -19 33 -11 17 -27 50 -35 73 -8 27 -13 35 -14 21 -1 -12 3
-32 8 -46 16 -41 -3 -52 -32 -18 -34 41 -40 64 -32 117 6 43 35 81 96 127 13
10 19 16 12 12 -8 -4 -10 4 -6 30 6 38 1 41 -43 25 -33 -13 -74 10 -74 40 0
26 64 96 95 104 14 4 25 11 25 16 0 13 0 13 -40 -11z"/>
<path d="M1627 1579 c-9 -37 -43 -76 -85 -100 -25 -13 -29 -17 -12 -13 14 4
35 14 48 22 26 17 65 87 59 105 -2 7 -7 0 -10 -14z"/>
<path d="M1790 1585 c0 -9 6 -12 15 -9 8 4 12 10 9 15 -8 14 -24 10 -24 -6z"/>
<path d="M2134 1589 c-3 -6 -1 -16 5 -22 8 -8 11 -5 11 11 0 24 -5 28 -16 11z"/>
<path d="M1707 1563 c-12 -11 -8 -23 8 -23 8 0 15 7 15 15 0 16 -12 20 -23 8z"/>
<path d="M966 1509 c2 -4 0 -10 -6 -14 -5 -3 -10 -14 -10 -23 0 -13 3 -12 16
6 10 15 25 22 47 22 l32 0 -40 -34 c-33 -29 -37 -36 -23 -41 32 -13 53 -1 56
30 2 17 9 36 14 43 6 7 8 15 4 19 -3 3 -6 1 -6 -5 0 -8 -7 -9 -24 -2 -28 10
-67 9 -60 -1z"/>
<path d="M2132 1447 c-18 -37 -37 -65 -42 -62 -12 8 -20 -9 -11 -23 5 -9 15
-1 33 25 50 75 59 94 56 111 -2 10 -17 -11 -36 -51z"/>
<path d="M1881 1481 c-9 -6 -7 -10 8 -14 12 -3 21 -1 21 3 0 14 -15 19 -29 11z"/>
<path d="M2066 1474 c-4 -10 -1 -14 6 -12 15 5 23 28 10 28 -5 0 -13 -7 -16
-16z"/>
<path d="M1279 1466 c14 -17 63 -46 78 -46 11 0 -7 14 -52 40 -31 19 -37 20
-26 6z"/>
<path d="M1741 1473 c0 -5 4 -17 8 -28 7 -17 8 -17 13 8 4 19 1 27 -8 27 -8 0
-14 -3 -13 -7z"/>
<path d="M1696 1463 c-11 -11 -6 -23 9 -23 8 0 15 4 15 9 0 13 -16 22 -24 14z"/>
<path d="M1776 1444 c-9 -22 -8 -24 9 -18 8 4 15 12 15 20 0 19 -16 18 -24 -2z"/>
<path d="M1174 1436 c-3 -9 -12 -16 -20 -16 -8 0 -14 -5 -14 -10 0 -7 6 -7 19
0 23 12 35 29 27 37 -3 3 -8 -2 -12 -11z"/>
<path d="M1863 1420 c-6 -17 -7 -30 -2 -30 9 0 24 48 17 55 -2 2 -9 -9 -15
-25z"/>
<path d="M1630 1425 c0 -8 5 -15 10 -15 6 0 10 7 10 15 0 8 -4 15 -10 15 -5 0
-10 -7 -10 -15z"/>
<path d="M1660 1408 c0 -19 2 -20 10 -8 13 19 13 30 0 30 -5 0 -10 -10 -10
-22z"/>
<path d="M1555 1409 c-4 -6 3 -21 15 -34 12 -13 19 -28 16 -33 -3 -6 2 -8 14
-5 23 6 27 23 5 23 -14 0 -19 12 -16 33 0 4 -5 6 -11 5 -7 -2 -12 3 -10 10 3
15 -4 16 -13 1z"/>
<path d="M1325 1400 c11 -18 94 -62 107 -57 8 3 6 6 -4 6 -10 1 -18 5 -18 9 0
4 -21 18 -46 30 -25 12 -43 18 -39 12z"/>
<path d="M1489 1403 c-21 -3 -26 -9 -22 -24 3 -10 9 -19 14 -19 5 0 6 7 2 16
-5 13 -2 15 18 9 13 -4 29 -15 36 -24 11 -15 12 -14 13 2 0 9 -4 17 -10 17 -5
0 -10 7 -10 15 0 8 -3 14 -7 14 -5 -1 -20 -4 -34 -6z"/>
<path d="M1690 1393 c0 -8 5 -11 10 -8 6 3 10 -3 10 -15 0 -11 8 -23 18 -26 9
-3 24 -9 33 -14 9 -5 20 -5 25 0 12 12 38 -5 30 -19 -4 -6 -16 -11 -27 -11
-13 0 -19 -7 -19 -22 1 -21 2 -22 14 -5 7 9 18 17 24 17 6 0 14 10 18 22 8 25
-23 55 -40 38 -18 -18 -27 -10 -24 23 3 31 2 32 -34 34 -27 1 -38 -3 -38 -14z
m60 -19 c0 -14 -12 -19 -23 -8 -9 9 4 35 14 28 5 -3 9 -12 9 -20z"/>
<path d="M1786 1385 c4 -8 10 -12 15 -9 14 8 10 24 -6 24 -9 0 -12 -6 -9 -15z"/>
<path d="M1630 1359 c0 -8 41 -29 56 -29 16 0 -1 18 -26 27 -17 6 -30 7 -30 2z"/>
<path d="M1862 1358 c5 -15 28 -23 28 -10 0 5 -7 13 -16 16 -10 4 -14 1 -12
-6z"/>
<path d="M1851 1324 c-2 -31 23 -49 39 -29 7 8 16 12 21 9 5 -3 6 2 3 11 -6
14 -8 14 -24 0 -22 -20 -28 -19 -33 8 -4 21 -4 21 -6 1z"/>
<path d="M321 1303 c-12 -14 -24 -37 -27 -50 -11 -41 3 -105 27 -127 l22 -21
-18 30 c-26 43 -26 117 1 147 28 31 37 48 25 48 -5 0 -19 -12 -30 -27z"/>
<path d="M1655 1288 c14 -45 45 -49 45 -6 0 17 -2 18 -15 8 -12 -10 -15 -10
-15 4 0 9 -5 16 -11 16 -6 0 -8 -9 -4 -22z"/>
<path d="M1525 1276 c39 -17 53 -34 69 -87 8 -24 14 -36 15 -27 2 35 -32 99
-60 113 -15 8 -34 15 -41 15 -7 -1 1 -7 17 -14z"/>
<path d="M2050 1265 c0 -14 4 -25 9 -25 4 0 6 11 3 25 -2 14 -6 25 -8 25 -2 0
-4 -11 -4 -25z"/>
<path d="M2340 1275 c0 -9 -6 -28 -14 -44 -13 -25 -13 -27 2 -27 9 1 17 -3 17
-9 0 -5 -3 -9 -7 -7 -12 3 -9 -26 3 -34 6 -3 15 0 20 7 13 22 11 59 -5 65 -11
4 -12 13 -6 35 5 17 5 29 -1 29 -5 0 -9 -7 -9 -15z"/>
<path d="M1810 1243 c0 -13 5 -23 10 -23 13 0 13 11 0 30 -8 12 -10 11 -10 -7z"/>
<path d="M1737 1214 c-4 -4 -7 -14 -7 -23 0 -11 3 -12 11 -4 6 6 10 16 7 23
-2 6 -7 8 -11 4z"/>
<path d="M1770 1195 c0 -8 5 -15 10 -15 6 0 10 7 10 15 0 8 -4 15 -10 15 -5 0
-10 -7 -10 -15z"/>
<path d="M1864 1200 c-5 -5 -27 -19 -49 -29 -28 -14 -34 -20 -20 -21 18 0 101
58 85 60 -4 0 -10 -4 -16 -10z"/>
<path d="M2291 1168 c-19 -30 -51 -95 -51 -104 0 -3 6 -1 13 5 8 6 18 7 22 3
5 -4 5 -2 2 4 -4 7 0 29 7 50 l14 39 12 -31 c9 -27 16 -32 41 -30 18 1 29 -3
29 -11 0 -7 5 -13 10 -13 7 0 7 6 0 19 -5 11 -10 30 -10 42 0 18 -2 19 -15 9
-20 -16 -45 -5 -45 20 0 26 -12 25 -29 -2z"/>
<path d="M1718 1143 c12 -2 30 -2 40 0 9 3 -1 5 -23 4 -22 0 -30 -2 -17 -4z"/>
<path d="M2208 1068 c-22 -33 -39 -68 -35 -68 8 0 60 81 55 85 -3 3 -12 -5
-20 -17z"/>
<path d="M2350 1076 c-6 -9 -10 -21 -8 -28 3 -8 9 -4 17 10 15 28 9 39 -9 18z"/>
<path d="M2401 1064 c-6 -15 -9 -29 -7 -32 3 -2 10 8 16 23 14 36 7 43 -9 9z"/>
<path d="M2320 1069 c0 -5 -4 -8 -8 -5 -5 3 -16 -11 -25 -30 -24 -50 -21 -52
13 -9 28 35 37 55 25 55 -3 0 -5 -5 -5 -11z"/>
<path d="M1853 1047 c-24 -12 -43 -25 -43 -30 0 -8 44 13 75 37 27 20 19 19
-32 -7z"/>
<path d="M940 1030 c-11 -7 -5 -8 20 -4 43 8 51 14 19 14 -13 0 -31 -5 -39
-10z"/>
<path d="M2242 1015 c-6 -14 -7 -25 -2 -25 9 0 25 39 18 46 -3 2 -10 -7 -16
-21z"/>
<path d="M2355 1010 c-4 -12 -5 -24 -2 -27 3 -2 8 5 12 17 4 12 5 24 2 27 -3
2 -8 -5 -12 -17z"/>
<path d="M1085 1010 c-20 -5 3 -8 74 -9 57 0 102 1 100 3 -9 8 -146 13 -174 6z"/>
<path d="M1665 958 c-87 -77 -133 -98 -210 -98 -83 0 -253 26 -306 46 -46 18
-151 26 -142 11 3 -5 23 -7 44 -4 22 3 37 2 35 -2 -5 -7 175 -67 229 -76 29
-5 29 -5 -5 10 l-35 14 40 -6 c22 -4 79 -7 126 -7 73 1 92 4 135 28 48 26 171
132 163 140 -2 3 -36 -23 -74 -56z"/>
<path d="M2373 982 c-6 -20 -10 -38 -8 -40 7 -7 32 57 26 66 -4 6 -12 -6 -18
-26z"/>
<path d="M930 984 c-32 -13 -33 -14 -5 -8 17 3 53 10 80 14 l50 8 -45 0 c-25
0 -61 -6 -80 -14z"/>
<path d="M2307 994 c-4 -4 -7 -14 -7 -23 0 -11 3 -12 11 -4 6 6 10 16 7 23 -2
6 -7 8 -11 4z"/>
<path d="M2396 964 c-8 -21 -8 -21 8 -21 8 0 11 8 8 19 -5 22 -8 23 -16 2z"/>
<path d="M2283 928 c-6 -7 -13 -22 -17 -33 -5 -16 -2 -15 14 5 18 23 25 40 16
40 -2 0 -8 -6 -13 -12z"/>
<path d="M700 915 c19 -23 98 -17 84 7 -3 5 -12 4 -20 -3 -11 -9 -21 -9 -40 0
-33 15 -39 14 -24 -4z"/>
<path d="M2333 913 c-3 -10 -8 -21 -10 -25 -2 -3 4 -5 13 -4 9 1 21 11 26 22
9 18 8 18 -8 -1 -16 -20 -16 -20 -11 3 6 26 -1 30 -10 5z"/>
<path d="M2380 905 c-6 -8 -10 -19 -8 -26 2 -6 9 0 16 15 13 29 10 33 -8 11z"/>
<path d="M2130 864 c0 -9 5 -12 12 -8 6 4 8 3 4 -4 -4 -6 17 -27 51 -50 56
-38 172 -152 241 -237 l33 -40 -34 53 c-40 61 -201 232 -220 232 -6 0 -23 10
-37 21 -20 16 -13 14 30 -7 30 -14 93 -58 140 -97 73 -60 78 -63 40 -23 -50
53 -143 122 -207 155 -50 25 -53 25 -53 5z"/>
<path d="M835 862 c6 -6 24 -13 40 -17 21 -4 25 -3 15 3 -24 15 -67 26 -55 14z"/>
<path d="M2117 820 c-3 -11 -1 -17 4 -14 13 8 117 -103 186 -199 117 -162 109
-133 -16 57 -32 49 -131 146 -149 146 -7 0 -11 4 -7 9 3 5 1 12 -4 15 -5 3
-11 -3 -14 -14z"/>
<path d="M1930 788 c0 -9 16 -35 35 -58 19 -23 35 -37 35 -32 0 6 -11 23 -23
39 -13 15 -29 37 -35 48 -9 16 -11 17 -12 3z"/>
<path d="M2060 768 c5 -13 27 -72 50 -133 44 -115 69 -168 70 -148 1 28 -112
303 -124 303 -3 0 -1 -10 4 -22z"/>
<path d="M2445 472 c9 -18 20 -30 25 -27 6 4 10 8 10 11 0 3 -4 2 -10 -1 -5
-3 -10 -2 -10 2 0 5 -7 18 -15 29 -14 16 -14 15 0 -14z"/>
</g>
</svg>
